<?xml version="1.0" encoding="UTF-8"?>
<svg height="600" width="800" xmlns="http://www.w3.org/2000/svg" xmlns:xlink="http://www.w3.org/1999/xlink">
    <g id="Notes" font-family="'LucidaGrande', 'Lucida Grande', sans-serif" font-size="13">
        <rect fill="white" height="600.0" width="800.0" x="0.0" y="0.0" />
        <g font-size="13">
            <text x="18.0" y="176.0">Small</text>
            <text x="18.0" y="376.0">Medium</text>
            <text x="18.0" y="576.0">Large</text>
        </g>
        <g font-size="9">
            <text x="250.0" y="30.0">Ultralight</text>
            <text x="450.0" y="30.0">Regular</text>
            <text x="650.0" y="30.0">Black</text>
            <text id="template-version" fill="#505050" text-anchor="end" x="785.0" y="575.0">Template v.3.0</text>
            <a href="https://wangchujiang.com/#/app">
                <text fill="#505050" text-anchor="end" x="785.0" y="590.0">https://wangchujiang.com/#/app</text>
            </a>
        </g>
    </g>
    <g id="Guides" stroke="rgb(39, 170, 225)" stroke-width="0.5">
        <path id="Capline-S" d="M18,76 l800,0" />
        <path id="H-reference" d="M85,145.755 L87.685,145.755 L113.369,79.287 L114.052,79.287 L114.052,76 L112.148,76 L85,145.755 Z M95.693,121.536 L130.996,121.536 L130.263,119.313 L96.474,119.313 L95.693,121.536 Z M139.15,145.755 L141.787,145.755 L114.638,76 L113.466,76 L113.466,79.287 L139.15,145.755 Z" stroke="none" />
        <path id="Baseline-S" d="M18,146 l800,0" />
        <path id="left-margin-Ultralight-S" d="M211,56 l0,110" />
        <path id="right-margin-Ultralight-S" d="M319,56 l0,110" />
        <path id="left-margin-Regular-S" d="M411,56 l0,110" />
        <path id="right-margin-Regular-S" d="M519,56 l0,110" />
        <path id="left-margin-Black-S" d="M611,56 l0,110" />
        <path id="right-margin-Black-S" d="M719,56 l0,110" />
        <path id="Capline-M" d="M18,276 l800,0" />
        <path id="Baseline-M" d="M18,346 l800,0" />
        <path id="Capline-L" d="M18,476 l800,0" />
        <path id="Baseline-L" d="M18,546 l800,0" />
    </g>
    <g id="Symbols">
        <g id="Ultralight-S">
            <path d="M317.126,111.531 C317.126,98.59 306.665,88.154 293.725,88.154 L235.89,88.154 C223,88.154 212.538,98.615 212.538,111.531 C212.538,124.471 223,134.907 235.89,134.907 C248.855,134.907 259.317,124.471 259.317,111.531 C259.317,106.895 257.904,102.507 255.425,98.838 L274.215,98.838 C271.736,102.507 270.348,106.895 270.348,111.531 C270.348,124.471 280.809,134.907 293.725,134.907 C306.665,134.907 317.126,124.471 317.126,111.531 Z M306.417,111.555 C306.417,118.546 300.74,124.223 293.725,124.223 C286.709,124.223 281.057,118.546 281.057,111.555 C281.057,104.515 286.709,98.838 293.725,98.838 C300.74,98.838 306.417,104.515 306.417,111.555 Z M248.607,111.555 C248.607,118.546 242.931,124.223 235.915,124.223 C228.925,124.223 223.248,118.546 223.248,111.555 C223.248,104.515 228.925,98.838 235.915,98.838 C242.931,98.838 248.607,104.515 248.607,111.555 Z" />
        </g>
        <g id="Regular-S">
            <path d="M517.126,111.531 C517.126,98.59 506.665,88.154 493.725,88.154 L435.89,88.154 C423,88.154 412.538,98.615 412.538,111.531 C412.538,124.471 423,134.907 435.89,134.907 C448.855,134.907 459.317,124.471 459.317,111.531 C459.317,106.895 457.904,102.507 455.425,98.838 L474.215,98.838 C471.736,102.507 470.348,106.895 470.348,111.531 C470.348,124.471 480.809,134.907 493.725,134.907 C506.665,134.907 517.126,124.471 517.126,111.531 Z M506.417,111.555 C506.417,118.546 500.74,124.223 493.725,124.223 C486.709,124.223 481.057,118.546 481.057,111.555 C481.057,104.515 486.709,98.838 493.725,98.838 C500.74,98.838 506.417,104.515 506.417,111.555 Z M448.607,111.555 C448.607,118.546 442.931,124.223 435.915,124.223 C428.925,124.223 423.248,118.546 423.248,111.555 C423.248,104.515 428.925,98.838 435.915,98.838 C442.931,98.838 448.607,104.515 448.607,111.555 Z" />
        </g>
        <g id="Black-S">
            <path d="M717.126,111.531 C717.126,98.59 706.665,88.154 693.725,88.154 L635.89,88.154 C623,88.154 612.538,98.615 612.538,111.531 C612.538,124.471 623,134.907 635.89,134.907 C648.855,134.907 659.317,124.471 659.317,111.531 C659.317,106.895 657.904,102.507 655.425,98.838 L674.215,98.838 C671.736,102.507 670.348,106.895 670.348,111.531 C670.348,124.471 680.809,134.907 693.725,134.907 C706.665,134.907 717.126,124.471 717.126,111.531 Z M706.417,111.555 C706.417,118.546 700.74,124.223 693.725,124.223 C686.709,124.223 681.057,118.546 681.057,111.555 C681.057,104.515 686.709,98.838 693.725,98.838 C700.74,98.838 706.417,104.515 706.417,111.555 Z M648.607,111.555 C648.607,118.546 642.931,124.223 635.915,124.223 C628.925,124.223 623.248,118.546 623.248,111.555 C623.248,104.515 628.925,98.838 635.915,98.838 C642.931,98.838 648.607,104.515 648.607,111.555 Z" />
        </g>
    </g>
</svg>